<svg width="17" height="17" viewBox="0 0 17 17" fill="none" xmlns="http://www.w3.org/2000/svg">
<path d="M15.4507 1.47929C15.8024 1.83108 16 2.30813 16 2.80555C16 3.30298 15.8024 3.78003 15.4507 4.13182C15.8525 5.25373 15.9412 6.46382 15.7076 7.63236C15.474 8.80089 14.9267 9.88381 14.1245 10.765L12.1342 12.7535C11.7717 13.2158 11.5228 13.7567 11.4077 14.3328C11.2925 14.9089 11.3142 15.5039 11.471 16.0701L0.859985 5.45996C1.42599 5.61664 2.02087 5.63827 2.59675 5.52309C3.17264 5.40792 3.71344 5.15915 4.17564 4.79682L6.16503 2.80555C7.04623 2.00334 8.12915 1.45608 9.29768 1.22244C10.4662 0.988795 11.6763 1.07759 12.7982 1.47929C13.15 1.12762 13.6271 0.930054 14.1245 0.930054C14.6219 0.930054 15.099 1.12762 15.4507 1.47929V1.47929Z" stroke="white" stroke-width="1.5" stroke-linecap="round" stroke-linejoin="round"/>
<path d="M4.17568 8.77466L3.51255 9.43779C2.98481 9.96553 2.68832 10.6813 2.68832 11.4277C2.68832 12.174 2.98481 12.8898 3.51255 13.4175C4.0403 13.9453 4.75607 14.2417 5.50241 14.2417C6.24876 14.2417 6.96453 13.9453 7.49228 13.4175L8.15541 12.7544" stroke="white" stroke-width="1.5" stroke-linecap="round" stroke-linejoin="round"/>
</svg>
