<svg width="14" height="16" viewBox="0 0 14 16" fill="none" xmlns="http://www.w3.org/2000/svg">
<path d="M2.55585 4.11111C2.55585 4.93623 2.88362 5.72755 3.46707 6.311C4.05052 6.89445 4.84184 7.22222 5.66696 7.22222C6.49208 7.22222 7.2834 6.89445 7.86685 6.311C8.45029 5.72755 8.77807 4.93623 8.77807 4.11111C8.77807 3.28599 8.45029 2.49467 7.86685 1.91122C7.2834 1.32778 6.49208 1 5.66696 1C4.84184 1 4.05052 1.32778 3.46707 1.91122C2.88362 2.49467 2.55585 3.28599 2.55585 4.11111Z" stroke="#23C37D" stroke-width="1.5" stroke-linecap="round" stroke-linejoin="round"/>
<path d="M1 15V13.4445C1 12.6194 1.32778 11.828 1.91122 11.2446C2.49467 10.6612 3.28599 10.3334 4.11111 10.3334H7.22222" stroke="#23C37D" stroke-width="1.5" stroke-linecap="round" stroke-linejoin="round"/>
<path d="M8 13.4445L9.55555 15L12.6667 11.8889" stroke="#23C37D" stroke-width="1.5" stroke-linecap="round" stroke-linejoin="round"/>
</svg>
